<?xml version="1.0" encoding="UTF-8"?>
<svg width="128" height="127" viewBox="0 0 128 127" fill="none" xmlns="http://www.w3.org/2000/svg">
  <g clip-path="url(#clip0_77_2)">
    <path d="M39.171 53.203L63.759 28.616L88.36 53.216L102.667 38.909L63.759 0L24.864 38.896L39.171 53.203Z"
      fill="#F3BA2F" />
    <path d="M29.0675 63.3033L14.7607 48.9965L0.453283 63.304L14.76 77.6107L29.0675 63.3033Z" fill="#F3BA2F" />
    <path
      d="M39.171 73.408L63.759 97.995L88.359 73.396L102.674 87.695L102.667 87.703L63.759 126.611L24.863 87.716L24.843 87.696L39.171 73.408Z"
      fill="#F3BA2F" />
    <path d="M112.759 77.6175L127.066 63.31L112.759 49.0032L98.4519 63.3107L112.759 77.6175Z" fill="#F3BA2F" />
    <path
      d="M78.271 63.298H78.277L63.759 48.78L53.03 59.509H53.029L51.797 60.742L49.254 63.285L49.234 63.305L49.254 63.326L63.759 77.831L78.277 63.313L78.284 63.305L78.271 63.298Z"
      fill="#F3BA2F" />
  </g>
  <defs>
    <clipPath id="clip0_77_2">
      <rect width="128" height="127" fill="white" />
    </clipPath>
  </defs>
</svg>