<svg width="21" height="21" viewBox="0 0 21 21" fill="none" xmlns="http://www.w3.org/2000/svg">
  <path
    d="M20 10.5C20 11.7476 19.7543 12.9829 19.2769 14.1355C18.7994 15.2881 18.0997 16.3354 17.2175 17.2175C16.3354 18.0997 15.2881 18.7994 14.1355 19.2769C12.9829 19.7543 11.7476 20 10.5 20C9.25244 20 8.0171 19.7543 6.86451 19.2769C5.71191 18.7994 4.66464 18.0997 3.78249 17.2175C2.90033 16.3354 2.20056 15.2881 1.72314 14.1355C1.24572 12.9829 1 11.7476 1 10.5C1 9.25244 1.24572 8.0171 1.72314 6.86451C2.20056 5.71191 2.90033 4.66464 3.78249 3.78248C4.66464 2.90033 5.71192 2.20056 6.86451 1.72314C8.0171 1.24572 9.25244 1 10.5 1C11.7476 1 12.9829 1.24573 14.1355 1.72314C15.2881 2.20056 16.3354 2.90033 17.2175 3.78249C18.0997 4.66464 18.7994 5.71192 19.2769 6.86451C19.7543 8.0171 20 9.25244 20 10.5L20 10.5Z"
    stroke="white" stroke-opacity="0.25" stroke-width="2" />
  <path
    d="M10.5 1C11.7476 1 12.9829 1.24572 14.1355 1.72314C15.2881 2.20056 16.3354 2.90033 17.2175 3.78249C18.0997 4.66464 18.7994 5.71191 19.2769 6.86451C19.7543 8.0171 20 9.25244 20 10.5"
    stroke="white" stroke-width="2" />
</svg>